ply
format ascii 1.0
element vertex 54
property float x
property float y
property float z
element face 104
property list uchar int vertex_indices
end_header
0.015999999642372132 0.017650800943374633 -0.01860109567642212
0.015999999642372132 -0.017650799453258516 0.0033553943037986757
0.015999999642372132 -0.017650799453258516 -0.01860109567642212
0.015999999642372132 0.017650800943374633 0.0033553943037986757
0.015999999642372132 0.01876405030488968 0.0059202127158641815
0.015999999642372132 -0.0187640517950058 0.0059202127158641815
0.015999999642372132 0.019199998676776887 0.00869678631424904
0.015999999642372132 -0.019200001657009125 0.00869678631424904
0.015999999642372132 -0.018928934633731843 0.011495907604694367
0.015999999642372132 0.01892893761396408 0.011495907604694367
0.015999999642372132 -0.01796933859586716 0.014126795530319215
0.015999999642372132 0.017969335615634918 0.014126795530319215
0.015999999642372132 -1.3567508894141158e-09 0.014699625968933107
0.015999999642372132 0.01638658940792084 0.016410188376903535
0.015999999642372132 0.0017146892845630647 0.01687789261341095
0.015999999642372132 0.014288556575775147 0.018190455436706544
0.015999999642372132 0.003913960605859757 0.01852117329835892
0.015999999642372132 0.011818220466375352 0.01934628486633301
0.015999999642372132 0.006447934359312058 0.01951747536659241
0.015999999642372132 0.009143928438425064 0.019798906147480012
0.015999999642372132 -0.016386592388153078 0.016410188376903535
0.015999999642372132 -0.0017146890982985498 0.01687789261341095
0.015999999642372132 -0.014288565516471863 0.018190455436706544
0.015999999642372132 -0.0039139602333307265 0.01852117329835892
0.015999999642372132 -0.011818230897188187 0.01934628486633301
0.015999999642372132 -0.006447944790124893 0.01951747536659241
0.015999999642372132 -0.0091439388692379 0.019798906147480012
-0.015999999642372132 -0.016386592388153078 0.016410188376903535
-0.015999999642372132 -1.3567508894141158e-09 0.014699625968933107
-0.015999999642372132 -0.01796933859586716 0.014126795530319215
-0.015999999642372132 -0.0017146890982985498 0.01687789261341095
-0.015999999642372132 -0.014288565516471863 0.018190455436706544
-0.015999999642372132 -0.0039139602333307265 0.01852117329835892
-0.015999999642372132 -0.011818230897188187 0.01934628486633301
-0.015999999642372132 -0.006447944790124893 0.01951747536659241
-0.015999999642372132 -0.0091439388692379 0.019798906147480012
-0.015999999642372132 -0.017650799453258516 0.0033553943037986757
-0.015999999642372132 0.017650800943374633 -0.01860109567642212
-0.015999999642372132 -0.017650799453258516 -0.01860109567642212
-0.015999999642372132 0.017650800943374633 0.0033553943037986757
-0.015999999642372132 -0.0187640517950058 0.0059202127158641815
-0.015999999642372132 0.01876405030488968 0.0059202127158641815
-0.015999999642372132 0.019199998676776887 0.00869678631424904
-0.015999999642372132 -0.019200001657009125 0.00869678631424904
-0.015999999642372132 -0.018928934633731843 0.011495907604694367
-0.015999999642372132 0.01892893761396408 0.011495907604694367
-0.015999999642372132 0.017969335615634918 0.014126795530319215
-0.015999999642372132 0.01638658940792084 0.016410188376903535
-0.015999999642372132 0.0017146892845630647 0.01687789261341095
-0.015999999642372132 0.014288556575775147 0.018190455436706544
-0.015999999642372132 0.003913960605859757 0.01852117329835892
-0.015999999642372132 0.011818220466375352 0.01934628486633301
-0.015999999642372132 0.006447934359312058 0.01951747536659241
-0.015999999642372132 0.009143928438425064 0.019798906147480012
3 0 1 2
3 1 0 3
3 1 3 4
3 1 4 5
3 5 4 6
3 5 6 7
3 7 6 8
3 8 6 9
3 8 9 10
3 10 9 11
3 10 11 12
3 12 11 13
3 12 13 14
3 14 13 15
3 14 15 16
3 16 15 17
3 16 17 18
3 18 17 19
3 12 20 10
3 20 12 21
3 20 21 22
3 22 21 23
3 22 23 24
3 24 23 25
3 24 25 26
3 27 28 29
3 28 27 30
3 30 27 31
3 30 31 32
3 32 31 33
3 32 33 34
3 34 33 35
3 36 37 38
3 37 36 39
3 39 36 40
3 39 40 41
3 41 40 42
3 42 40 43
3 42 43 44
3 42 44 45
3 45 44 29
3 45 29 46
3 46 29 28
3 46 28 47
3 47 28 48
3 47 48 49
3 49 48 50
3 49 50 51
3 51 50 52
3 51 52 53
3 2 37 0
3 37 2 38
3 38 1 36
3 1 38 2
3 3 37 39
3 37 3 0
3 36 5 40
3 5 36 1
3 4 39 41
3 39 4 3
3 40 7 43
3 7 40 5
3 6 41 42
3 41 6 4
3 43 8 44
3 8 43 7
3 9 42 45
3 42 9 6
3 44 10 29
3 10 44 8
3 11 45 46
3 45 11 9
3 29 20 27
3 20 29 10
3 13 46 47
3 46 13 11
3 27 22 31
3 22 27 20
3 49 13 47
3 13 49 15
3 31 24 33
3 24 31 22
3 51 15 49
3 15 51 17
3 33 26 35
3 26 33 24
3 53 17 51
3 17 53 19
3 35 25 34
3 25 35 26
3 52 19 53
3 19 52 18
3 34 23 32
3 23 34 25
3 50 18 52
3 18 50 16
3 32 21 30
3 21 32 23
3 48 16 50
3 16 48 14
3 21 28 30
3 28 21 12
3 28 14 48
3 14 28 12
